<?xml version="1.0" standalone="no"?><!-- Generator: Gravit.io --><svg xmlns="http://www.w3.org/2000/svg" xmlns:xlink="http://www.w3.org/1999/xlink" style="isolation:isolate" viewBox="0 0 486 486" width="486" height="486"><defs><clipPath id="_clipPath_8E7xeTdoFbW0mcRZfZ4UIY9PpZlAzJ0N"><rect width="486" height="486"/></clipPath></defs><g clip-path="url(#_clipPath_8E7xeTdoFbW0mcRZfZ4UIY9PpZlAzJ0N)"><g id="XMLID_189_"><defs><filter id="6bW1TQLG9tAwIzHEnTbdjgMb7nedxfB3" x="-200%" y="-200%" width="400%" height="400%"><feOffset xmlns="http://www.w3.org/2000/svg" in="SourceAlpha" result="offOut" dx="3" dy="3"/><feGaussianBlur xmlns="http://www.w3.org/2000/svg" in="offOut" result="blurOut" stdDeviation="2.5"/><feComponentTransfer xmlns="http://www.w3.org/2000/svg" in="blurOut" result="opacOut"><feFuncA xmlns="http://www.w3.org/2000/svg" type="table" tableValues="0 0.5"/></feComponentTransfer><feBlend xmlns="http://www.w3.org/2000/svg" in="SourceGraphic" in2="opacOut" mode="normal"/></filter></defs><g filter="url(#6bW1TQLG9tAwIzHEnTbdjgMb7nedxfB3)"><linearGradient id="_lgradient_0" x1="0%" y1="50%" x2="100%" y2="50%"><stop offset="0%" stop-opacity="1" style="stop-color:rgb(255,255,255)"/><stop offset="100%" stop-opacity="1" style="stop-color:rgb(0,0,0)"/></linearGradient><path d=" M 414.298 58.22 C 417.976 54.44 424.007 54.366 427.787 58.044 C 431.558 61.702 431.64 67.744 427.964 71.523 C 427.916 71.57 427.834 71.653 427.777 71.7 L 302.876 193.194 L 327.136 219.615 L 451.332 105.604 C 463.396 94.535 471.606 79.892 474.762 63.824 L 485.887 7.13 C 486.268 5.175 485.655 3.165 484.248 1.75 C 482.832 0.343 480.821 -0.27 478.867 0.112 L 422.174 11.236 C 406.106 14.392 391.462 22.603 380.394 34.667 L 268.878 156.153 L 293.242 182.693 L 414.298 58.22 Z " fill="url(#_lgradient_0)" vector-effect="non-scaling-stroke" stroke-width="0.998" stroke="rgb(0,0,0)" stroke-linejoin="miter" stroke-linecap="butt" stroke-miterlimit="4"/></g><defs><filter id="MF398EtLSfAzSR5NBSDEiNSexm2ZgPlU" x="-200%" y="-200%" width="400%" height="400%"><feOffset xmlns="http://www.w3.org/2000/svg" in="SourceAlpha" result="offOut" dx="3" dy="3"/><feGaussianBlur xmlns="http://www.w3.org/2000/svg" in="offOut" result="blurOut" stdDeviation="2.5"/><feComponentTransfer xmlns="http://www.w3.org/2000/svg" in="blurOut" result="opacOut"><feFuncA xmlns="http://www.w3.org/2000/svg" type="table" tableValues="0 0.5"/></feComponentTransfer><feBlend xmlns="http://www.w3.org/2000/svg" in="SourceGraphic" in2="opacOut" mode="normal"/></filter></defs><g filter="url(#MF398EtLSfAzSR5NBSDEiNSexm2ZgPlU)"><linearGradient id="_lgradient_1" x1="0%" y1="50%" x2="100%" y2="50%"><stop offset="0%" stop-opacity="1" style="stop-color:rgb(255,255,255)"/><stop offset="100%" stop-opacity="1" style="stop-color:rgb(0,0,0)"/></linearGradient><path d=" M 161.17 273.485 L 109.542 329.742 C 92.227 317.761 72.593 308.851 51.154 304.411 C 40.831 302.251 30.758 308.889 28.627 319.213 C 26.485 329.518 33.112 339.61 43.426 341.74 C 59.197 345.008 73.655 351.507 86.511 360.154 L 15.259 415.461 C 6.322 422.397 0.801 432.833 0.084 444.123 C -0.624 455.406 3.557 466.456 11.553 474.455 C 18.962 481.872 28.998 485.997 39.416 485.997 C 40.235 485.997 41.053 485.979 41.884 485.923 C 53.175 485.216 63.61 479.696 70.545 470.758 L 124.613 401.107 C 130.72 411.916 135.337 423.683 137.945 436.258 C 139.806 445.271 147.736 451.46 156.59 451.46 C 157.875 451.46 159.167 451.331 160.472 451.06 C 170.787 448.929 177.415 438.837 175.275 428.532 C 171.477 410.165 164.26 393.203 154.84 377.779 L 214.81 322.724 L 161.17 273.485 Z " fill="url(#_lgradient_1)" vector-effect="non-scaling-stroke" stroke-width="0.998" stroke="rgb(0,0,0)" stroke-linejoin="miter" stroke-linecap="butt" stroke-miterlimit="4"/></g><defs><filter id="LdmaBToiiYQM2iVBcCeXI5goeIEtA0k5" x="-200%" y="-200%" width="400%" height="400%"><feOffset xmlns="http://www.w3.org/2000/svg" in="SourceAlpha" result="offOut" dx="3" dy="3"/><feGaussianBlur xmlns="http://www.w3.org/2000/svg" in="offOut" result="blurOut" stdDeviation="2.5"/><feComponentTransfer xmlns="http://www.w3.org/2000/svg" in="blurOut" result="opacOut"><feFuncA xmlns="http://www.w3.org/2000/svg" type="table" tableValues="0 0.5"/></feComponentTransfer><feBlend xmlns="http://www.w3.org/2000/svg" in="SourceGraphic" in2="opacOut" mode="normal"/></filter></defs><g filter="url(#LdmaBToiiYQM2iVBcCeXI5goeIEtA0k5)"><linearGradient id="_lgradient_2" x1="0%" y1="50%" x2="100%" y2="50%"><stop offset="0%" stop-opacity="1" style="stop-color:rgb(255,255,255)"/><stop offset="100%" stop-opacity="1" style="stop-color:rgb(0,0,0)"/></linearGradient><path d=" M 470.739 415.461 L 415.917 372.909 L 399.486 360.154 C 411.608 352 431.656 344.845 442.572 341.74 C 453.493 338.633 459.514 329.518 457.373 319.213 C 455.232 308.889 445.074 302.234 434.844 304.411 C 426.725 306.096 418.869 308.434 411.273 311.273 C 398.789 315.936 387.219 322.294 376.456 329.742 L 105.605 34.667 C 94.535 22.603 79.891 14.393 63.826 11.236 L 7.13 0.112 C 6.75 0.038 6.369 0 5.987 0 C 4.414 0 2.886 0.624 1.75 1.75 C 0.345 3.165 -0.268 5.176 0.113 7.131 L 11.237 63.824 C 14.393 79.892 22.605 94.535 34.668 105.604 L 331.156 377.778 C 324.213 389.144 318.71 401.413 314.735 414.456 C 313.32 419.11 311.719 423.701 310.724 428.532 C 308.583 438.837 315.21 448.929 325.524 451.06 C 326.829 451.331 328.123 451.46 329.406 451.46 C 335.961 451.46 341.975 448.044 345.429 442.625 C 346.639 440.727 347.569 438.606 348.053 436.258 C 350.66 423.683 355.278 411.916 361.384 401.107 L 372.89 415.927 L 415.451 470.758 C 422.387 479.697 432.823 485.216 444.114 485.923 C 455.396 486.63 466.448 482.46 474.446 474.455 C 482.442 466.456 486.62 455.406 485.913 444.123 C 485.197 432.833 479.678 422.397 470.739 415.461 Z  M 266.122 266.02 C 263.946 268.254 260.362 268.312 258.118 266.132 L 58.22 71.7 C 58.164 71.653 58.081 71.57 58.034 71.523 C 54.356 67.743 54.441 61.702 58.209 58.044 C 61.991 54.366 68.023 54.441 71.701 58.22 L 266.122 258.127 C 268.245 260.313 268.264 263.814 266.122 266.02 Z " fill="url(#_lgradient_2)" vector-effect="non-scaling-stroke" stroke-width="0.998" stroke="rgb(0,0,0)" stroke-linejoin="miter" stroke-linecap="butt" stroke-miterlimit="4"/></g></g></g></svg>