<?xml version="1.0" standalone="no"?><!-- Generator: Gravit.io --><svg xmlns="http://www.w3.org/2000/svg" xmlns:xlink="http://www.w3.org/1999/xlink" style="isolation:isolate" viewBox="0 0 44.999 44.999" width="44.999" height="44.999"><defs><clipPath id="_clipPath_pCwWmZh2povjMx3ulGc31C9Z7iLno6CV"><rect width="44.999" height="44.999"/></clipPath></defs><g clip-path="url(#_clipPath_pCwWmZh2povjMx3ulGc31C9Z7iLno6CV)"><g id="Group"><g id="Group"><g id="Group"><linearGradient id="_lgradient_2" x1="0%" y1="50%" x2="100%" y2="50%"><stop offset="0%" stop-opacity="1" style="stop-color:rgb(255,0,0)"/><stop offset="100%" stop-opacity="1" style="stop-color:rgb(0,0,0)"/></linearGradient><path d=" M 41.611 4.93 C 37.418 1.707 32.397 0 27.097 0 C 13.966 0 3.28 10.684 3.28 23.818 C 3.28 26.79 3.824 29.693 4.896 32.449 C 4.983 32.678 5.161 32.636 5.254 32.605 C 5.487 32.532 14.831 28.878 14.831 28.878 C 14.972 28.824 15.045 28.664 14.988 28.521 C 14.408 27.027 14.112 25.443 14.111 23.816 C 14.111 16.656 19.936 10.832 27.096 10.832 C 29.989 10.832 32.722 11.759 35.003 13.516 C 35.065 13.561 35.137 13.582 35.21 13.573 C 35.282 13.562 35.351 13.526 35.396 13.467 L 41.661 5.321 C 41.706 5.265 41.725 5.189 41.718 5.117 C 41.708 5.041 41.668 4.975 41.611 4.93 Z " fill="url(#_lgradient_2)"/><path d=" M 24.682 12.367 C 24.616 12.306 24.523 12.283 24.435 12.303 C 21.86 12.899 19.527 14.368 17.866 16.441 C 17.805 16.518 17.791 16.617 17.821 16.707 C 17.855 16.797 17.93 16.868 18.024 16.885 C 18.857 17.068 19.692 17.442 20.509 17.997 C 20.559 18.031 20.612 18.045 20.665 18.045 C 20.73 18.045 20.795 18.023 20.849 17.978 C 21.997 16.983 23.299 16.2 24.724 15.654 C 24.85 15.607 24.921 15.476 24.898 15.344 C 24.714 14.365 24.673 13.444 24.773 12.607 C 24.784 12.518 24.749 12.428 24.682 12.367 Z " fill="rgb(0,0,0)"/><linearGradient id="_lgradient_3" x1="0%" y1="50%" x2="100%" y2="50%"><stop offset="0%" stop-opacity="1" style="stop-color:rgb(250,250,250)"/><stop offset="100%" stop-opacity="1" style="stop-color:rgb(0,0,0)"/></linearGradient><path d=" M 29.688 15.901 C 23.241 15.901 17.994 20.633 17.994 26.453 C 17.994 29.042 18.567 31.58 19.569 33.42 C 20.516 35.163 18.707 37.083 17.256 38.623 C 16.263 39.677 15.478 40.51 15.639 41.197 C 15.708 41.498 15.945 41.725 16.342 41.877 C 16.841 42.065 17.443 42.166 18.081 42.166 C 19.887 42.166 21.672 41.381 22.859 40.066 C 24.305 38.465 24.915 36.098 24.618 33.218 C 24.544 32.482 24.693 31.85 25.027 31.48 C 25.227 31.256 25.487 31.137 25.776 31.137 C 26.999 31.137 29.005 33.275 29.531 39.169 C 29.878 43.038 33.385 44.998 39.956 44.998 C 39.956 44.998 40.484 44.998 40.585 44.689 C 40.73 44.246 40.19 43.753 38.808 42.579 C 37.489 41.457 35.495 39.762 35.599 38.773 C 35.622 38.537 35.78 38.341 36.078 38.18 C 37.099 37.62 37.679 36.992 37.787 36.295 C 37.869 35.75 37.658 35.191 37.17 34.676 C 36.864 34.357 36.17 33.893 35.293 33.303 C 34.01 32.445 31.707 30.898 31.566 30.127 L 41.108 30.127 C 41.181 30.127 41.25 30.1 41.304 30.048 C 41.355 29.994 41.383 29.924 41.383 29.852 L 41.381 26.426 C 41.37 20.624 36.122 15.901 29.688 15.901 Z  M 24.979 28.792 C 24.188 28.792 23.541 28.148 23.541 27.357 C 23.541 26.566 24.187 25.922 24.979 25.922 C 25.771 25.922 26.413 26.566 26.413 27.357 C 26.413 28.148 25.77 28.792 24.979 28.792 Z  M 37.807 28.506 L 29.357 28.506 C 28.692 28.506 28.15 27.992 28.15 27.359 C 28.15 26.726 28.692 26.212 29.357 26.212 L 37.807 26.212 C 38.472 26.212 39.011 26.727 39.011 27.359 C 39.011 27.992 38.472 28.506 37.807 28.506 Z " fill="url(#_lgradient_3)"/></g></g></g></g></svg>