<?xml version="1.0" standalone="no"?><!-- Generator: Gravit.io --><svg xmlns="http://www.w3.org/2000/svg" xmlns:xlink="http://www.w3.org/1999/xlink" style="isolation:isolate" viewBox="0 0 493 493" width="493" height="493"><defs><clipPath id="_clipPath_YP7FAXHYRVuOhwF1eTPNKqazcULaeVwU"><rect width="493" height="493"/></clipPath></defs><g clip-path="url(#_clipPath_YP7FAXHYRVuOhwF1eTPNKqazcULaeVwU)"><defs><filter id="nHt5SW9OPvsFaJn3QgNjVJuwHa72vT3l" x="-200%" y="-200%" width="400%" height="400%"><feOffset xmlns="http://www.w3.org/2000/svg" in="SourceAlpha" result="offOut" dx="3" dy="3"/><feGaussianBlur xmlns="http://www.w3.org/2000/svg" in="offOut" result="blurOut" stdDeviation="2.5"/><feComponentTransfer xmlns="http://www.w3.org/2000/svg" in="blurOut" result="opacOut"><feFuncA xmlns="http://www.w3.org/2000/svg" type="table" tableValues="0 0.5"/></feComponentTransfer><feBlend xmlns="http://www.w3.org/2000/svg" in="SourceGraphic" in2="opacOut" mode="normal"/></filter></defs><g filter="url(#nHt5SW9OPvsFaJn3QgNjVJuwHa72vT3l)"><path d=" M 33.657 313.318 C 31.513 314.4 28.341 314.216 26.787 311.149 C 25.49 308.635 26.482 305.544 28.997 304.246 C 29.719 303.871 30.502 303.677 31.304 303.677 C 32.793 303.677 34.781 304.407 35.822 306.407 L 35.851 306.464 C 37.118 308.963 36.141 312.037 33.657 313.318 Z  M 466.215 311.116 C 464.616 314.272 461.395 314.368 459.346 313.326 C 456.862 312.037 455.869 308.972 457.152 306.464 L 457.181 306.415 C 458.223 304.406 460.193 303.676 461.698 303.676 C 462.502 303.676 463.285 303.87 464.021 304.245 C 466.521 305.535 467.498 308.627 466.215 311.116 Z " fill="rgb(0,0,0)"/></g><defs><filter id="9rugD8P0nl6vJaq2a3TN2Lq3e40NHKkl" x="-200%" y="-200%" width="400%" height="400%"><feOffset xmlns="http://www.w3.org/2000/svg" in="SourceAlpha" result="offOut" dx="3" dy="3"/><feGaussianBlur xmlns="http://www.w3.org/2000/svg" in="offOut" result="blurOut" stdDeviation="2.5"/><feComponentTransfer xmlns="http://www.w3.org/2000/svg" in="blurOut" result="opacOut"><feFuncA xmlns="http://www.w3.org/2000/svg" type="table" tableValues="0 0.5"/></feComponentTransfer><feBlend xmlns="http://www.w3.org/2000/svg" in="SourceGraphic" in2="opacOut" mode="normal"/></filter></defs><g filter="url(#9rugD8P0nl6vJaq2a3TN2Lq3e40NHKkl)"><radialGradient id="_rgradient_11" fx="50%" fy="50%" cx="50%" cy="50%" r="50%"><stop offset="69.56521739130434%" stop-opacity="1" style="stop-color:rgb(55,41,0)"/><stop offset="100%" stop-opacity="1" style="stop-color:rgb(0,0,0)"/></radialGradient><path d=" M 263.983 291.923 L 263.983 346.015 L 407.227 346.015 C 407.227 346.015 434.755 293.24 435.464 291.93 C 442.845 278.287 461.971 273.67 476.034 280.942 C 491.377 288.854 497.43 307.776 489.532 323.128 C 484.118 333.608 473.453 340.112 461.666 340.112 C 456.7 340.112 451.736 338.902 447.315 336.628 C 445.762 335.829 444.386 334.842 443.039 333.834 C 443.039 333.834 415.928 384.946 413.81 388.832 C 391.54 429.68 346.927 453.809 299.841 453.809 L 193.143 453.809 C 146.055 453.809 101.078 429.606 79.173 388.824 C 75.765 382.478 49.961 333.834 49.961 333.834 C 48.615 334.842 47.24 335.82 45.685 336.62 C 41.249 338.903 36.301 340.113 31.334 340.113 C 19.547 340.113 8.866 333.61 3.452 323.144 C -4.427 307.753 1.643 288.838 16.97 280.934 C 30.935 273.743 50.236 278.192 57.506 291.899 C 58.982 294.685 85.759 346.016 85.759 346.016 L 229.004 346.016 L 229.004 291.901 L 263.983 291.923 Z " fill="url(#_rgradient_11)"/></g><defs><filter id="XyIRSTPkmaL0PyY5xcvNJtjjHZq1bwXs" x="-200%" y="-200%" width="400%" height="400%"><feOffset xmlns="http://www.w3.org/2000/svg" in="SourceAlpha" result="offOut" dx="3" dy="3"/><feGaussianBlur xmlns="http://www.w3.org/2000/svg" in="offOut" result="blurOut" stdDeviation="2.5"/><feComponentTransfer xmlns="http://www.w3.org/2000/svg" in="blurOut" result="opacOut"><feFuncA xmlns="http://www.w3.org/2000/svg" type="table" tableValues="0 0.5"/></feComponentTransfer><feBlend xmlns="http://www.w3.org/2000/svg" in="SourceGraphic" in2="opacOut" mode="normal"/></filter></defs><g filter="url(#XyIRSTPkmaL0PyY5xcvNJtjjHZq1bwXs)"><radialGradient id="_rgradient_12" fx="50%" fy="50%" cx="50%" cy="50%" r="50%"><stop offset="0%" stop-opacity="1" style="stop-color:rgb(255,0,0)"/><stop offset="100%" stop-opacity="1" style="stop-color:rgb(155,0,0)"/></radialGradient><path d=" M 229.006 85 L 229.006 86.838 C 180.799 86.838 132.574 86.838 84.368 86.838 C 146.974 140.314 146.974 237.091 84.368 290.56 C 132.574 290.56 180.799 290.56 229.006 290.56 L 211.99 290.56 L 229.006 290.56 L 229.006 290.56 L 229.006 291.923 L 263.986 291.901 L 263.986 290.561 C 296.547 290.561 329.106 290.561 361.667 290.561 C 424.273 237.091 424.273 140.315 361.667 86.839 C 329.106 86.839 296.547 86.839 263.986 86.839 L 263.986 85 L 229.006 85 Z " fill="url(#_rgradient_12)" vector-effect="non-scaling-stroke" stroke-width="0.999" stroke="rgb(0,0,0)" stroke-linejoin="miter" stroke-linecap="butt" stroke-miterlimit="4"/></g><defs><filter id="ZsFYkyG0MyHRM0A8mztojenVoO8jW6ne" x="-200%" y="-200%" width="400%" height="400%"><feOffset xmlns="http://www.w3.org/2000/svg" in="SourceAlpha" result="offOut" dx="3" dy="3"/><feGaussianBlur xmlns="http://www.w3.org/2000/svg" in="offOut" result="blurOut" stdDeviation="2.5"/><feComponentTransfer xmlns="http://www.w3.org/2000/svg" in="blurOut" result="opacOut"><feFuncA xmlns="http://www.w3.org/2000/svg" type="table" tableValues="0 0.5"/></feComponentTransfer><feBlend xmlns="http://www.w3.org/2000/svg" in="SourceGraphic" in2="opacOut" mode="normal"/></filter></defs><g filter="url(#ZsFYkyG0MyHRM0A8mztojenVoO8jW6ne)"><path d=" M 263.983 85 L 263.983 56.672 C 263.983 47.014 256.151 39.19 246.494 39.19 C 236.835 39.19 229.004 47.014 229.004 56.672 L 229.004 85 L 263.983 85 Z " fill="rgb(49,37,0)" vector-effect="non-scaling-stroke" stroke-width="0.999" stroke="rgb(0,0,0)" stroke-linejoin="miter" stroke-linecap="butt" stroke-miterlimit="4"/></g></g></svg>